<?xml version="1.0" encoding="UTF-8" standalone="no"?>
<!-- Created with Inkscape (http://www.inkscape.org/) -->

<svg
   width="32"
   height="32"
   viewBox="0 0 32 32"
   version="1.1"
   id="svg5"
   xmlns="http://www.w3.org/2000/svg"
   xmlns:svg="http://www.w3.org/2000/svg">
  <defs
     id="defs2" />
  <g
     id="layer1">
    <g
       aria-label="`~`"
       id="text2168"
       style="font-size:21.3333px;line-height:1.25;font-family:Terminus;-inkscape-font-specification:Terminus">
      <rect
         style="fill:#7dc903;fill-opacity:0.79794538;stroke-width:2.5"
         id="rect37235"
         width="31.998592"
         height="31.998592"
         x="0.010962302"
         y="0.054309275"
         ry="6.4431548" />
      <path
         id="path37164"
         style="fill:#ffffff;fill-opacity:1;stroke-width:2.36393"
         d="m 1.5625,7.6132812 c -0.1071534,1.1462414 0.5374979,2.1773815 0.8366041,3.2514668 1.1256451,3.011332 2.3991929,5.979067 3.962224,8.791502 0.6647136,0 1.3294271,0 1.9941407,0 0.8125483,-1.355829 1.8013762,-2.852097 3.3720842,-3.377647 1.913923,-0.318922 3.45687,1.15391 4.925745,2.136372 1.525142,1.1311 3.66808,1.706083 5.421301,0.749253 1.374108,-0.667264 2.587556,-1.72024 3.33751,-3.060712 1.078375,2.712594 2.220299,5.410982 3.656251,7.957031 0.664713,0 1.329427,0 1.99414,0 0.053,-0.643694 -0.04555,-1.260965 -0.330336,-1.84752 -1.16335,-3.339079 -2.15381,-6.739503 -2.913805,-10.193496 -1.182943,0 -2.365885,0 -3.548828,0 -0.815402,1.35899 -1.808786,2.863539 -3.390596,3.377342 -1.865165,0.373315 -3.348267,-1.063296 -4.750898,-2.044075 -1.55416,-1.157107 -3.780427,-1.871392 -5.562094,-0.79244 -1.34235,0.726449 -2.4943479,1.826898 -3.2397711,3.162298 -0.8650115,-2.666667 -1.6130833,-5.370884 -2.2148438,-8.1093748 -1.1829427,0 -2.3658854,0 -3.5488281,0 z" />
    </g>
  </g>
</svg>
